<svg xmlns="http://www.w3.org/2000/svg" viewBox="0 0 52 47" width="52" height="47">
    <path d="M27.28 26.805V.6h-2.56v26.205c0 3.122 2.512 5.662 5.6 5.662V29.88c-1.676 0-3.04-1.379-3.04-3.074m14.4 3.074c-4.058 0-7.36-3.338-7.36-7.441s3.302-7.441 7.36-7.441 7.36 3.338 7.36 7.44c0 4.104-3.302 7.442-7.36 7.442m0-17.47c-5.47 0-9.92 4.499-9.92 10.029s4.45 10.03 9.92 10.03 9.92-4.5 9.92-10.03c0-5.53-4.45-10.03-9.92-10.03m-24 10.03c0 4.103-3.302 7.441-7.36 7.441s-7.36-3.338-7.36-7.441 3.302-7.441 7.36-7.441 7.36 3.338 7.36 7.44M20.24 9.61h-2.56c0 1.543-1.242 2.799-2.768 2.799H10.32C4.85 12.409.4 16.908.4 22.438c0 3.741 2.038 7.008 5.049 8.732a9.976 9.976 0 00-2.143 1.647l1.81 1.83a7.272 7.272 0 015.204-2.18c1.966 0 3.814.774 5.204 2.18a7.433 7.433 0 012.156 5.261 7.435 7.435 0 01-2.156 5.262l1.81 1.83a10.02 10.02 0 002.906-7.092 10.02 10.02 0 00-2.906-7.091 9.98 9.98 0 00-2.143-1.647 10.052 10.052 0 005.05-8.732c0-3.108-1.407-5.89-3.609-7.731A5.39 5.39 0 0020.24 9.61" fill="#000" fill-rule="evenodd"></path>
</svg>