<svg fill="none" height="40" viewBox="0 0 117 40" width="117" xmlns="http://www.w3.org/2000/svg" xmlns:xlink="http://www.w3.org/1999/xlink"><linearGradient id="a" gradientUnits="userSpaceOnUse" x1="-.28433" x2="99.6083" y1="19.9984" y2="19.9984"><stop offset=".0171" stop-color="#9d7f42"/><stop offset=".1965" stop-color="#c6a148"/><stop offset=".4276" stop-color="#775a28"/><stop offset=".6266" stop-color="#c09f4c"/><stop offset=".8125" stop-color="#f8e270"/><stop offset="1" stop-color="#997a41"/></linearGradient><g fill="url(#a)"><path d="m114.875 11.9438h-7.978v-3.79677h5.912v-2.49081h-5.912v-3.16541h7.801v-2.49081h-10.472v14.4346h10.649z"/><path d="m30.3164 9.25406c0 1.89404-1.075 3.11354-3.25 3.11354-2.1583 0-3.2248-1.2195-3.2248-3.11354v-9.25406h-2.6705v9.25406c0 3.40754 2.1162 5.60434 5.8953 5.60434 3.7958 0 5.9205-2.2054 5.9205-5.60434v-9.25406h-2.6705z"/><path d="m9.79193 6.00216h-7.1214v-6.00216h-2.67053v14.4346h2.67053v-5.94162h7.1214v5.94162h2.67057v-14.4346h-2.67057z"/><path d="m88.6817 0h-2.6705v14.4346h11.0768v-2.4908h-8.4063z"/><path d="m75.9505 6.45189c.8817-.55351 1.4696-1.66054 1.4696-2.83675 0-.88217-.3359-1.68649-.9742-2.34379-.5626-.579458-1.6124-1.27135-3.4011-1.27135h-7.4741v14.4346h7.6421c2.0658 0 2.9812-.6054 3.653-1.2541.865-.8562 1.3101-1.9027 1.3101-3.1221 0-1.71245-.8566-3.08759-2.2254-3.60651zm-7.7093-3.96108h4.5517c.6382 0 1.0917.15568 1.4192.49297.2771.28541.4367.68325.4367 1.08973 0 .46703-.1932.95136-.5207 1.28865-.3107.32-.7306.46703-1.3352.46703h-4.5517zm6.6427 8.85619c-.3695.3806-.9489.5968-1.5872.5968h-5.0555v-3.84001h5.0555c.6047 0 1.1925.25946 1.604.70054.3275.35459.5039.77838.5039 1.22807 0 .4757-.2015.9773-.5207 1.3146z"/><path d="m49.3796 10.1795-4.854-10.1795h-2.6622v14.4346h2.5614v-8.66595l4.1905 8.88215h1.3017l4.199-8.88215v8.66595h2.6705v-14.4346h-2.5614z"/><path d="m42.93 24.7005c-4.4089 0-7.8604 3.3471-7.8604 7.6195 0 4.307 3.4515 7.68 7.8604 7.68 4.4425 0 7.9192-3.373 7.9192-7.68 0-4.2032-3.5523-7.6195-7.9192-7.6195zm5.1227 7.6195c0 2.8627-2.301 5.1892-5.1227 5.1892-2.7881 0-5.0639-2.3265-5.0639-5.1892 0-2.8714 2.2254-5.1287 5.0639-5.1287 2.8217 0 5.1227 2.3006 5.1227 5.1287z"/><path d="m86.5234 33.28h5.9037v-2.4908h-5.9037v-3.1654h7.7932v-2.4908h-10.4637v14.4259h10.6485v-2.4908h-7.978z"/><path d="m21.1291 25.133h-2.6705v14.4259h10.3294v-2.4908h-7.6589z"/><path d="m0 39.5589h2.67053v-6.2789h5.91211v-2.4908h-5.91211v-3.1654h7.80167v-2.4908h-10.4722z"/><path d="m111.885 33.8681c.731-.2248 1.352-.5794 1.864-1.081.84-.8476 1.31-1.9719 1.31-3.1654 0-1.0984-.394-2.1103-1.133-2.9406-.949-1.0551-2.251-1.5394-4.082-1.5394h-6.743v14.4346h2.67v-5.4227h2.998l3.914 5.4227h3.325zm-2.049-2.214h-4.073v-4.0303h4.073c.714 0 1.461.0865 2.024.7006.344.3805.521.8216.521 1.3146 0 .5102-.21 1.0118-.58 1.3664-.588.5709-1.285.6487-1.965.6487z"/><path d="m73.3891 25.133h-.1511l-.0588.1384-3.9302 9.6432-1.5032-4.0475 2.0322-5.4227.1176-.32h-2.4438l-.0587.147-.865 2.2919-.8482-2.2919-.0588-.147h-2.5866l.1176.3113 2.0827 5.6562-1.436 3.8573-4.0814-9.6865-.0588-.1383h-2.8553l.1428.3286 6.0045 14.106h1.5704l.0588-.1471 1.8811-5.0421 1.8643 5.0421.0588.1471h1.7216l.0588-.1471 5.6601-13.9675.1344-.32h-2.5698z"/></g></svg>